<?xml version="1.0" standalone="no"?>
<!DOCTYPE svg PUBLIC "-//W3C//DTD SVG 20010904//EN"
 "http://www.w3.org/TR/2001/REC-SVG-20010904/DTD/svg10.dtd">
<svg version="1.0" xmlns="http://www.w3.org/2000/svg"
 width="512.000000pt" height="512.000000pt" viewBox="0 0 512.000000 512.000000"
 preserveAspectRatio="xMidYMid meet">
<metadata>
Created by potrace 1.14, written by Peter Selinger 2001-2017
</metadata>
<g transform="translate(0.000000,512.000000) scale(0.100000,-0.100000)"
fill="#000000" stroke="none">
<path d="M3085 4460 c-76 -17 -135 -65 -166 -135 -56 -126 0 -264 126 -316 36
-15 55 -29 55 -39 0 -22 -62 -264 -93 -365 -72 -230 -191 -496 -316 -704 -28
-46 -51 -88 -51 -92 0 -4 -3 -9 -8 -11 -4 -1 -23 -27 -42 -57 -46 -73 -197
-270 -273 -356 -87 -100 -276 -284 -360 -352 -40 -32 -80 -66 -91 -75 -33 -29
-238 -173 -311 -218 -299 -184 -652 -332 -974 -410 l-94 -23 -84 42 c-123 62
-185 87 -214 85 -78 -3 -141 -44 -170 -110 -18 -39 -19 -63 -15 -282 5 -252
10 -282 55 -329 45 -48 108 -66 173 -51 21 4 87 35 147 69 l110 60 63 -15
c150 -37 315 -67 453 -82 33 -3 92 -10 130 -14 71 -8 527 -5 600 4 22 3 58 7
80 10 22 3 63 8 90 11 28 4 57 8 65 10 8 2 35 7 60 10 54 8 253 52 296 66 32
10 65 61 50 77 -4 3 37 21 91 39 85 29 99 31 109 19 6 -9 23 -20 39 -26 33
-13 24 -16 225 71 308 131 628 332 895 563 152 131 369 359 481 506 27 36 51
67 54 70 23 23 176 257 232 355 98 173 196 384 262 572 38 107 99 317 111 382
6 30 7 31 44 37 126 20 214 141 196 270 -9 68 -59 140 -120 171 -25 14 -315
107 -410 133 -29 8 -182 55 -452 139 -73 23 -141 41 -151 41 -11 0 -31 -11
-46 -25 l-27 -25 -91 28 c-85 26 -91 29 -92 55 -2 37 -30 60 -96 81 -248 77
-457 138 -483 140 -18 1 -45 0 -62 -4z"/>
</g>
</svg>
